<?xml version="1.0" encoding="UTF-8"?>
<svg xmlns="http://www.w3.org/2000/svg" xmlns:xlink="http://www.w3.org/1999/xlink" width="300pt" height="120pt" viewBox="0 0 300 120" version="1.1">
<g id="surface1">
<path style=" stroke:none;fill-rule:nonzero;fill:rgb(89.803922%,19.607843%,21.960784%);fill-opacity:1;" d="M 38.867188 26.308594 C 17.722656 26.308594 0.101562 35.28125 0.101562 62.34375 C 0.101562 83.785156 11.949219 97.289062 39.414062 97.289062 C 71.738281 97.289062 73.8125 75.996094 73.8125 75.996094 L 58.148438 75.996094 C 58.148438 75.996094 54.789062 87.460938 38.457031 87.460938 C 25.15625 87.460938 15.585938 78.476562 15.585938 65.878906 L 75.449219 65.878906 L 75.449219 57.976562 C 75.449219 45.515625 67.539062 26.308594 38.867188 26.308594 Z M 38.320312 36.410156 C 50.984375 36.410156 59.613281 44.167969 59.613281 55.792969 L 15.933594 55.792969 C 15.933594 43.449219 27.203125 36.410156 38.320312 36.410156 Z M 38.320312 36.410156 "/>
<path style=" stroke:none;fill-rule:nonzero;fill:rgb(0%,39.215686%,82.352941%);fill-opacity:1;" d="M 75.4375 0.101562 L 75.4375 83.695312 C 75.4375 88.441406 75.097656 95.105469 75.097656 95.105469 L 90.039062 95.105469 C 90.039062 95.105469 90.574219 90.320312 90.574219 85.945312 C 90.574219 85.945312 97.957031 97.492188 118.027344 97.492188 C 139.160156 97.492188 153.515625 82.820312 153.515625 61.796875 C 153.515625 42.242188 140.332031 26.511719 118.058594 26.511719 C 97.207031 26.511719 90.726562 37.773438 90.726562 37.773438 L 90.726562 0.101562 Z M 114.203125 36.851562 C 128.554688 36.851562 137.683594 47.503906 137.683594 61.796875 C 137.683594 77.125 127.140625 87.152344 114.304688 87.152344 C 98.988281 87.152344 90.726562 75.195312 90.726562 61.933594 C 90.726562 49.582031 98.140625 36.851562 114.203125 36.851562 Z M 114.203125 36.851562 "/>
<path style=" stroke:none;fill-rule:nonzero;fill:rgb(96.078431%,68.627451%,0.784314%);fill-opacity:1;" d="M 190.644531 26.308594 C 158.832031 26.308594 156.792969 43.726562 156.792969 46.511719 L 172.625 46.511719 C 172.625 46.511719 173.457031 36.339844 189.554688 36.339844 C 200.011719 36.339844 208.117188 41.128906 208.117188 50.332031 L 208.117188 53.609375 L 189.554688 53.609375 C 164.90625 53.609375 151.878906 60.820312 151.878906 75.449219 C 151.878906 89.847656 163.917969 97.683594 180.1875 97.683594 C 202.355469 97.683594 209.5 85.429688 209.5 85.429688 C 209.5 90.304688 209.875 95.105469 209.875 95.105469 L 223.953125 95.105469 C 223.953125 95.105469 223.40625 89.152344 223.40625 85.34375 L 223.40625 52.429688 C 223.40625 30.851562 205.996094 26.308594 190.644531 26.308594 Z M 208.117188 63.4375 L 208.117188 67.804688 C 208.117188 73.503906 204.601562 87.664062 183.90625 87.664062 C 172.570312 87.664062 167.710938 82.007812 167.710938 75.449219 C 167.710938 63.515625 184.078125 63.4375 208.117188 63.4375 Z M 208.117188 63.4375 "/>
<path style=" stroke:none;fill-rule:nonzero;fill:rgb(52.54902%,72.156863%,9.019608%);fill-opacity:1;" d="M 214.878906 29.042969 L 232.691406 29.042969 L 258.257812 80.257812 L 283.761719 29.042969 L 299.898438 29.042969 L 253.441406 120.222656 L 236.515625 120.222656 L 249.921875 94.804688 Z M 214.878906 29.042969 "/>
</g>
</svg>
