<?xml version="1.0" encoding="UTF-8"?>
<svg xmlns="http://www.w3.org/2000/svg" xmlns:xlink="http://www.w3.org/1999/xlink" width="300pt" height="150pt" viewBox="0 0 300 150" version="1.1">
<g id="surface1">
<path style=" stroke:none;fill-rule:nonzero;fill:rgb(95.686275%,34.509804%,0%);fill-opacity:1;" d="M 40.917969 19.53125 L 40.917969 57.082031 C 40.917969 57.082031 54.148438 57.082031 61.230469 56.542969 C 66.800781 55.570312 67.824219 55.03125 68.851562 49.460938 L 70.898438 41.304688 L 76.957031 41.304688 L 75.929688 59.132812 L 76.46875 77.394531 L 70.363281 77.394531 L 68.851562 70.261719 C 67.335938 65.1875 65.289062 64.15625 61.230469 63.667969 C 56.15625 63.132812 40.917969 63.132812 40.917969 63.132812 L 40.917969 94.625 C 40.917969 100.679688 43.992188 103.269531 51.074219 103.269531 L 72.414062 103.269531 C 79.007812 103.269531 85.59375 102.730469 89.699219 93.113281 L 95.21875 80.90625 L 100.34375 80.90625 C 99.804688 83.445312 97.269531 105.804688 96.78125 110.835938 C 96.78125 110.835938 77.492188 110.351562 69.386719 110.351562 L 32.8125 110.351562 L 10.988281 110.835938 L 10.988281 105.320312 L 18.070312 103.757812 C 23.195312 102.730469 24.707031 101.21875 24.707031 97.164062 C 24.707031 97.164062 25.242188 83.445312 25.242188 60.585938 C 25.242188 37.789062 24.707031 24.0625 24.707031 24.0625 C 24.707031 19.519531 23.195312 18.492188 18.070312 17.46875 L 10.988281 15.96875 L 10.988281 10.398438 L 32.324219 10.835938 L 72.949219 10.835938 C 81.054688 10.835938 94.726562 9.375 94.726562 9.375 C 94.726562 9.375 94.238281 17.96875 93.699219 38.28125 L 88.132812 38.28125 L 86.082031 31.148438 C 84.082031 22.019531 81.050781 17.476562 75.4375 17.476562 L 43.507812 17.476562 C 40.917969 17.480469 40.917969 17.96875 40.917969 19.53125 Z M 123.144531 23.539062 L 129.25 23.539062 L 129.25 44.875 L 150.101562 43.851562 L 149.074219 53.519531 L 128.761719 51.957031 L 128.761719 89.554688 C 128.761719 100.199219 132.324219 104.300781 138.429688 104.300781 C 143.949219 104.300781 148.050781 101.226562 149.5625 98.6875 L 152.585938 102.25 C 149.5625 109.332031 140.96875 112.894531 132.8125 112.894531 C 122.707031 112.894531 114.5 106.835938 114.5 95.167969 L 114.5 52.488281 L 102.386719 52.488281 L 102.386719 47.414062 C 112.550781 46.386719 120.117188 40.28125 123.144531 23.539062 Z M 166.84375 89.011719 L 170.894531 98.679688 C 172.40625 102.730469 175.96875 106.835938 184.074219 106.835938 C 192.71875 106.835938 196.28125 102.25 196.28125 96.679688 C 196.28125 79.394531 162.25 84.476562 162.25 61.132812 C 162.25 47.949219 172.894531 41.792969 186.613281 41.792969 C 192.71875 41.792969 201.851562 42.820312 206.4375 44.867188 C 205.414062 49.945312 204.875 56.539062 204.875 61.617188 L 199.84375 62.105469 L 196.28125 51.949219 C 195.257812 49.460938 191.15625 47.40625 186.125 47.40625 C 180.019531 47.40625 173.917969 49.945312 173.917969 56.539062 C 173.917969 72.261719 208.976562 68.742188 208.976562 92.085938 C 208.976562 105.320312 197.304688 112.398438 183.050781 112.398438 C 172.40625 112.398438 161.710938 108.300781 161.710938 108.300781 C 162.738281 102.242188 162.25 95.65625 161.710938 89.011719 Z M 206.445312 137.742188 C 207.957031 132.175781 208.980469 125.101562 210.007812 118.457031 L 215.574219 117.96875 L 217.625 128.613281 C 218.113281 131.148438 219.625 133.199219 223.679688 133.199219 C 230.273438 133.199219 238.917969 129.148438 247.070312 114.9375 C 243.457031 106.292969 232.8125 78.414062 223.144531 57.074219 C 220.605469 51.460938 220.117188 50.96875 216.601562 49.945312 L 214.011719 48.96875 L 214.011719 43.84375 L 229.292969 44.382812 L 248.042969 43.355469 L 248.042969 48.4375 L 243.457031 49.460938 C 239.894531 49.949219 238.425781 51.949219 238.425781 54.007812 C 238.425781 54.542969 238.425781 55.03125 238.914062 56.054688 C 239.886719 59.132812 248.042969 81.9375 254.148438 97.167969 C 259.179688 86.523438 268.851562 62.648438 270.363281 58.59375 C 270.898438 56.542969 271.386719 56.054688 271.386719 54.542969 C 271.386719 51.957031 269.875 50.445312 266.355469 49.46875 L 262.742188 48.4375 L 262.742188 43.363281 L 277 43.851562 L 290.179688 43.363281 L 290.179688 48.4375 L 287.644531 50.4375 C 282.570312 52.488281 282.03125 52.976562 280.023438 57.074219 L 257.710938 109.320312 C 244.480469 139.300781 230.761719 141.835938 221.136719 141.835938 C 215.039062 141.84375 210.449219 140.28125 206.445312 137.742188 Z M 206.445312 137.742188 "/>
</g>
</svg>
