<?xml version="1.0" encoding="UTF-8"?>
<svg xmlns="http://www.w3.org/2000/svg" xmlns:xlink="http://www.w3.org/1999/xlink" width="299pt" height="94pt" viewBox="0 0 299 94" version="1.1">
<g id="surface1">
<path style=" stroke:none;fill-rule:nonzero;fill:rgb(58.431373%,74.901961%,27.843137%);fill-opacity:1;" d="M 64.246094 19.484375 C 64.195312 19.042969 63.804688 18.847656 63.511719 18.847656 C 63.21875 18.847656 56.820312 18.359375 56.820312 18.359375 C 56.820312 18.359375 52.375 13.902344 51.835938 13.464844 C 51.347656 12.972656 50.417969 13.121094 50.027344 13.21875 C 49.980469 13.21875 49.050781 13.511719 47.535156 14.003906 C 46.023438 9.644531 43.433594 5.679688 38.792969 5.679688 L 38.351562 5.679688 C 37.082031 4.015625 35.421875 3.230469 34.054688 3.230469 C 23.304688 3.230469 18.125 16.695312 16.511719 23.550781 C 12.3125 24.871094 9.332031 25.753906 8.988281 25.898438 C 6.644531 26.632812 6.59375 26.683594 6.300781 28.886719 C 6.058594 30.550781 -0.0507812 77.894531 -0.0507812 77.894531 L 47.488281 86.804688 L 73.285156 81.222656 C 73.332031 81.125 64.292969 19.925781 64.246094 19.484375 Z M 44.898438 14.6875 C 43.726562 15.03125 42.308594 15.472656 40.894531 15.960938 L 40.894531 15.078125 C 40.894531 12.433594 40.550781 10.28125 39.914062 8.566406 C 42.359375 8.863281 43.871094 11.554688 44.898438 14.6875 Z M 36.933594 9.105469 C 37.570312 10.769531 38.011719 13.121094 38.011719 16.351562 L 38.011719 16.839844 C 35.371094 17.675781 32.585938 18.507812 29.703125 19.4375 C 31.316406 13.269531 34.394531 10.230469 36.933594 9.105469 Z M 33.808594 6.070312 C 34.296875 6.070312 34.785156 6.265625 35.175781 6.558594 C 31.707031 8.175781 28.042969 12.238281 26.527344 20.464844 C 24.234375 21.199219 22.035156 21.835938 19.933594 22.519531 C 21.691406 16.253906 26.089844 6.070312 33.808594 6.070312 Z M 33.808594 6.070312 "/>
<path style=" stroke:none;fill-rule:nonzero;fill:rgb(36.862745%,55.686275%,24.313725%);fill-opacity:1;" d="M 63.511719 18.75 C 63.21875 18.75 56.820312 18.261719 56.820312 18.261719 C 56.820312 18.261719 52.375 13.804688 51.835938 13.367188 C 51.640625 13.167969 51.398438 13.070312 51.203125 13.070312 L 47.636719 86.804688 L 73.429688 81.222656 C 73.429688 81.222656 64.390625 19.925781 64.34375 19.484375 C 64.148438 19.042969 63.804688 18.847656 63.511719 18.75 Z M 63.511719 18.75 "/>
<path style=" stroke:none;fill-rule:nonzero;fill:rgb(100%,100%,100%);fill-opacity:1;" d="M 38.792969 33.046875 L 35.664062 42.496094 C 35.664062 42.496094 32.832031 40.976562 29.460938 40.976562 C 24.429688 40.976562 24.183594 44.160156 24.183594 44.945312 C 24.183594 49.253906 35.421875 50.917969 35.421875 61.050781 C 35.421875 69.03125 30.386719 74.171875 23.597656 74.171875 C 15.390625 74.171875 11.285156 69.082031 11.285156 69.082031 L 13.484375 61.835938 C 13.484375 61.835938 17.785156 65.554688 21.398438 65.554688 C 23.792969 65.554688 24.769531 63.695312 24.769531 62.324219 C 24.769531 56.695312 15.585938 56.449219 15.585938 47.148438 C 15.585938 39.363281 21.15625 31.824219 32.441406 31.824219 C 36.640625 31.773438 38.792969 33.046875 38.792969 33.046875 Z M 38.792969 33.046875 "/>
<path style=" stroke:none;fill-rule:nonzero;fill:rgb(0%,0%,0%);fill-opacity:1;" d="M 103.378906 50.820312 C 100.789062 49.449219 99.472656 48.222656 99.472656 46.609375 C 99.472656 44.550781 101.328125 43.230469 104.210938 43.230469 C 107.582031 43.230469 110.5625 44.601562 110.5625 44.601562 L 112.90625 37.402344 C 112.90625 37.402344 110.757812 35.738281 104.40625 35.738281 C 95.5625 35.738281 89.40625 40.832031 89.40625 47.980469 C 89.40625 52.042969 92.289062 55.128906 96.101562 57.332031 C 99.226562 59.042969 100.300781 60.316406 100.300781 62.175781 C 100.300781 64.085938 98.738281 65.652344 95.855469 65.652344 C 91.605469 65.652344 87.550781 63.449219 87.550781 63.449219 L 85.058594 70.648438 C 85.058594 70.648438 88.773438 73.144531 95.023438 73.144531 C 104.113281 73.144531 110.707031 68.640625 110.707031 60.5625 C 110.609375 56.15625 107.335938 53.121094 103.378906 50.820312 Z M 139.632812 35.640625 C 135.136719 35.640625 131.617188 37.796875 128.929688 41.027344 L 128.832031 40.976562 L 132.742188 20.613281 L 122.628906 20.613281 L 112.761719 72.507812 L 122.875 72.507812 L 126.246094 54.785156 C 127.5625 48.078125 131.03125 43.914062 134.257812 43.914062 C 136.554688 43.914062 137.433594 45.480469 137.433594 47.683594 C 137.433594 49.054688 137.335938 50.820312 136.992188 52.191406 L 133.183594 72.507812 L 143.296875 72.507812 L 147.253906 51.554688 C 147.691406 49.351562 147.984375 46.707031 147.984375 44.894531 C 147.9375 39.070312 144.957031 35.640625 139.632812 35.640625 Z M 170.851562 35.640625 C 158.636719 35.640625 150.574219 46.65625 150.574219 58.945312 C 150.574219 66.777344 155.410156 73.144531 164.5 73.144531 C 176.46875 73.144531 184.53125 62.421875 184.53125 49.839844 C 184.578125 42.542969 180.378906 35.640625 170.851562 35.640625 Z M 165.867188 65.410156 C 162.398438 65.410156 160.980469 62.472656 160.980469 58.75 C 160.980469 52.925781 163.960938 43.476562 169.480469 43.476562 C 173.046875 43.476562 174.269531 46.609375 174.269531 49.59375 C 174.269531 55.8125 171.191406 65.410156 165.867188 65.410156 Z M 210.472656 35.640625 C 203.632812 35.640625 199.773438 41.710938 199.773438 41.710938 L 199.675781 41.710938 L 200.261719 36.277344 L 191.273438 36.277344 C 190.832031 39.949219 190 45.582031 189.21875 49.742188 L 182.234375 86.902344 L 192.347656 86.902344 L 195.179688 71.871094 L 195.425781 71.871094 C 195.425781 71.871094 197.527344 73.191406 201.335938 73.191406 C 213.257812 73.191406 221.027344 60.953125 221.027344 48.617188 C 220.976562 41.761719 217.898438 35.640625 210.472656 35.640625 Z M 200.800781 65.507812 C 198.160156 65.507812 196.597656 63.988281 196.597656 63.988281 L 198.257812 54.539062 C 199.429688 48.175781 202.753906 44.011719 206.269531 44.011719 C 209.398438 44.011719 210.324219 46.902344 210.324219 49.59375 C 210.375 56.15625 206.464844 65.507812 200.800781 65.507812 Z M 235.4375 21.101562 C 232.214844 21.101562 229.625 23.695312 229.625 26.976562 C 229.625 29.960938 231.53125 32.066406 234.410156 32.066406 L 234.511719 32.066406 C 237.683594 32.066406 240.371094 29.914062 240.421875 26.191406 C 240.46875 23.207031 238.46875 21.101562 235.4375 21.101562 Z M 221.269531 72.457031 L 231.382812 72.457031 L 238.222656 36.425781 L 228.0625 36.425781 M 264.019531 36.375 L 256.984375 36.375 L 257.324219 34.710938 C 257.910156 31.234375 259.964844 28.199219 263.382812 28.199219 C 265.191406 28.199219 266.609375 28.738281 266.609375 28.738281 L 268.5625 20.757812 C 268.5625 20.757812 266.851562 19.878906 263.042969 19.878906 C 259.476562 19.878906 255.859375 20.90625 253.125 23.253906 C 249.65625 26.191406 248.042969 30.453125 247.261719 34.761719 L 246.96875 36.425781 L 242.230469 36.425781 L 240.714844 44.113281 L 245.453125 44.113281 L 240.078125 72.507812 L 250.191406 72.507812 L 255.566406 44.113281 L 262.554688 44.113281 Z M 288.398438 36.425781 C 288.398438 36.425781 282.046875 52.433594 279.261719 61.199219 L 279.164062 61.199219 C 278.96875 58.359375 276.671875 36.425781 276.671875 36.425781 L 266.023438 36.425781 L 272.128906 69.421875 C 272.226562 70.15625 272.179688 70.597656 271.886719 71.085938 C 270.710938 73.386719 268.710938 75.589844 266.363281 77.207031 C 264.457031 78.578125 262.308594 79.507812 260.597656 80.097656 L 263.433594 88.710938 C 265.484375 88.273438 269.785156 86.558594 273.351562 83.179688 C 277.941406 78.871094 282.242188 72.164062 286.640625 63.058594 L 299 36.375 L 288.398438 36.375 Z M 288.398438 36.425781 "/>
</g>
</svg>
