<?xml version="1.0" encoding="UTF-8"?>
<svg xmlns="http://www.w3.org/2000/svg" xmlns:xlink="http://www.w3.org/1999/xlink" width="256pt" height="153pt" viewBox="0 0 256 153" version="1.1">
<g id="surface1">
<path style=" stroke:none;fill-rule:nonzero;fill:rgb(60.784314%,36.078431%,56.078431%);fill-opacity:1;" d="M 23.757812 0 L 232.140625 0 C 245.324219 0 256.003906 10.675781 256.003906 23.863281 L 256.003906 103.40625 C 256.003906 116.59375 245.328125 127.269531 232.140625 127.269531 L 157.410156 127.269531 L 167.667969 152.386719 L 122.558594 127.269531 L 23.863281 127.269531 C 10.679688 127.269531 0.00390625 116.59375 0.00390625 103.40625 L 0.00390625 23.863281 C -0.101562 10.78125 10.574219 0 23.761719 0 Z M 23.757812 0 "/>
<path style=" stroke:none;fill-rule:nonzero;fill:rgb(100%,100%,100%);fill-opacity:1;" d="M 14.578125 21.75 C 16.035156 19.773438 18.21875 18.730469 21.132812 18.523438 C 26.441406 18.109375 29.460938 20.605469 30.1875 26.015625 C 33.414062 47.765625 36.953125 66.1875 40.699219 81.277344 L 63.488281 37.878906 C 65.570312 33.925781 68.171875 31.84375 71.292969 31.636719 C 75.871094 31.324219 78.683594 34.238281 79.828125 40.378906 C 82.429688 54.21875 85.757812 65.976562 89.714844 75.96875 C 92.417969 49.535156 96.996094 30.492188 103.449219 18.730469 C 105.011719 15.820312 107.300781 14.363281 110.320312 14.152344 C 112.710938 13.945312 114.898438 14.671875 116.875 16.234375 C 118.851562 17.796875 119.890625 19.773438 120.101562 22.167969 C 120.203125 24.039062 119.890625 25.601562 119.058594 27.160156 C 115 34.652344 111.671875 47.246094 108.964844 64.726562 C 106.363281 81.691406 105.425781 94.90625 106.050781 104.378906 C 106.261719 106.980469 105.84375 109.269531 104.804688 111.246094 C 103.554688 113.535156 101.679688 114.785156 99.289062 114.992188 C 96.582031 115.199219 93.773438 113.953125 91.066406 111.140625 C 81.390625 101.253906 73.6875 86.480469 68.070312 66.808594 C 61.304688 80.128906 56.308594 90.121094 53.082031 96.78125 C 46.945312 108.539062 41.742188 114.574219 37.371094 114.886719 C 34.558594 115.097656 32.167969 112.703125 30.085938 107.707031 C 24.777344 94.074219 19.054688 67.746094 12.914062 28.722656 C 12.496094 26.015625 13.121094 23.621094 14.578125 21.75 Z M 238.21875 38.089844 C 234.472656 31.53125 228.957031 27.578125 221.566406 26.015625 C 219.589844 25.601562 217.71875 25.390625 215.949219 25.390625 C 205.957031 25.390625 197.839844 30.59375 191.492188 41 C 186.082031 49.847656 183.375 59.628906 183.375 70.347656 C 183.375 78.359375 185.042969 85.230469 188.371094 90.953125 C 192.117188 97.507812 197.632812 101.464844 205.023438 103.023438 C 207 103.441406 208.871094 103.648438 210.640625 103.648438 C 220.734375 103.648438 228.851562 98.445312 235.097656 88.039062 C 240.507812 79.089844 243.214844 69.308594 243.214844 58.589844 C 243.316406 50.472656 241.546875 43.707031 238.21875 38.089844 Z M 225.105469 66.914062 C 223.648438 73.78125 221.046875 78.882812 217.195312 82.316406 C 214.179688 85.023438 211.371094 86.167969 208.769531 85.644531 C 206.269531 85.125 204.1875 82.941406 202.628906 78.882812 C 201.378906 75.65625 200.753906 72.429688 200.753906 69.410156 C 200.753906 66.808594 200.964844 64.207031 201.484375 61.816406 C 202.417969 57.546875 204.1875 53.386719 207 49.429688 C 210.433594 44.332031 214.074219 42.25 217.820312 42.980469 C 220.320312 43.5 222.402344 45.683594 223.960938 49.742188 C 225.210938 52.96875 225.835938 56.195312 225.835938 59.214844 C 225.835938 61.917969 225.625 64.519531 225.105469 66.914062 Z M 173.074219 38.089844 C 169.328125 31.53125 163.707031 27.578125 156.421875 26.015625 C 154.445312 25.601562 152.574219 25.390625 150.804688 25.390625 C 140.8125 25.390625 132.695312 30.59375 126.347656 41 C 120.9375 49.847656 118.230469 59.628906 118.230469 70.347656 C 118.230469 78.359375 119.894531 85.230469 123.226562 90.953125 C 126.972656 97.507812 132.488281 101.464844 139.875 103.023438 C 141.855469 103.441406 143.726562 103.648438 145.496094 103.648438 C 155.589844 103.648438 163.707031 98.445312 169.949219 88.039062 C 175.363281 79.089844 178.066406 69.308594 178.066406 58.589844 C 178.066406 50.472656 176.402344 43.707031 173.074219 38.089844 Z M 159.855469 66.914062 C 158.398438 73.78125 155.796875 78.882812 151.949219 82.316406 C 148.929688 85.023438 146.121094 86.167969 143.519531 85.644531 C 141.019531 85.125 138.941406 82.941406 137.378906 78.882812 C 136.128906 75.65625 135.503906 72.429688 135.503906 69.410156 C 135.503906 66.808594 135.714844 64.207031 136.234375 61.816406 C 137.171875 57.546875 138.941406 53.386719 141.75 49.429688 C 145.183594 44.332031 148.824219 42.25 152.574219 42.980469 C 155.070312 43.5 157.152344 45.683594 158.710938 49.742188 C 159.960938 52.96875 160.585938 56.195312 160.585938 59.214844 C 160.691406 61.917969 160.378906 64.519531 159.855469 66.914062 Z M 159.855469 66.914062 "/>
</g>
</svg>
